<svg xmlns="http://www.w3.org/2000/svg" viewBox="0 0 512 512">
  <defs>
    <linearGradient id="bgGrad" x1="0%" y1="0%" x2="100%" y2="100%">
      <stop offset="0%" style="stop-color:#22c55e;stop-opacity:1" />
      <stop offset="100%" style="stop-color:#16a34a;stop-opacity:1" />
    </linearGradient>
    <linearGradient id="cloudGrad" x1="0%" y1="0%" x2="0%" y2="100%">
      <stop offset="0%" style="stop-color:#ffffff;stop-opacity:0.95" />
      <stop offset="100%" style="stop-color:#f0f0f0;stop-opacity:0.9" />
    </linearGradient>
  </defs>
  
  <!-- Full background for maskable (safe zone padding applied) -->
  <rect width="512" height="512" fill="url(#bgGrad)"/>
  
  <!-- Cloud shape - centered in safe zone (80% of icon = 410px, centered) -->
  <g transform="translate(51, 51) scale(0.8)">
    <!-- Cloud shape representing air/atmosphere -->
    <path d="M380 300c0-33.1-26.9-60-60-60-5.5 0-10.8 0.8-15.9 2.1C295.3 207.6 262.4 180 224 180c-46.4 0-84 37.6-84 84 0 2.8 0.2 5.5 0.4 8.2C113.5 280.9 92 308.3 92 340c0 39.8 32.2 72 72 72h196c33.1 0 60-26.9 60-60 0-18.5-8.4-35.1-21.6-46.1 -5.2-4.2-3.4-12.9 1.6-12.9h0c22.1 0 40-17.9 40-40s-17.9-40-40-40c-11 0-21 4.5-28.2 11.7" 
          fill="url(#cloudGrad)" 
          transform="translate(30, 30)"/>
    
    <!-- Air quality indicator waves -->
    <g fill="none" stroke="#ffffff" stroke-width="8" stroke-linecap="round">
      <path d="M160 380 Q 200 340, 240 380 Q 280 420, 320 380" opacity="0.6"/>
      <path d="M140 420 Q 190 380, 240 420 Q 290 460, 340 420" opacity="0.4"/>
    </g>
    
    <!-- Leaf symbol for clean air -->
    <path d="M256 120c-20 40-60 80-60 120s40 40 60 0c20 40 60 40 60 0s-40-80-60-120z" 
          fill="#ffffff" 
          opacity="0.9"
          transform="translate(0, 20) scale(0.6) translate(170, 100)"/>
  </g>
</svg>
